<svg width="152" height="152" viewBox="0 0 152 152" fill="none" xmlns="http://www.w3.org/2000/svg">
<path d="M40.5522 93.7044L102.706 31.5508C104.586 29.6707 105.526 28.7307 106.6 28.3535C107.672 27.9769 108.841 27.9769 109.913 28.3535C110.987 28.7307 111.927 29.6707 113.807 31.5508L123.212 40.9553C125.092 42.8354 126.032 43.7754 126.409 44.8494C126.786 45.9218 126.786 47.0904 126.409 48.1628C126.032 49.2368 125.092 50.1768 123.212 52.0569L61.0583 114.21C60.2369 115.032 59.8262 115.443 59.3506 115.742C58.873 116.042 58.3481 116.26 57.7979 116.385C57.25 116.51 56.6692 116.51 55.5075 116.51L41.393 116.51C40.3295 116.51 39.7977 116.51 39.3873 116.313C38.9775 116.116 38.6469 115.785 38.4501 115.375C38.253 114.965 38.253 114.433 38.253 113.37L38.253 99.2551C38.253 98.0935 38.253 97.5127 38.3778 96.9648C38.503 96.4146 38.7204 95.8897 39.0209 95.4121C39.3201 94.9365 39.7308 94.5258 40.5522 93.7044Z" fill="url(#paint0_linear)"/>
<path d="M28.5522 93.7044L90.7058 31.5508C92.5859 29.6707 93.5259 28.7307 94.5999 28.3535C95.6723 27.9769 96.8409 27.9769 97.9133 28.3535C98.9872 28.7307 99.9273 29.6707 101.807 31.5508L111.212 40.9553C113.092 42.8354 114.032 43.7754 114.409 44.8494C114.786 45.9218 114.786 47.0904 114.409 48.1628C114.032 49.2368 113.092 50.1768 111.212 52.0569L49.0583 114.21C48.2369 115.032 47.8262 115.443 47.3506 115.742C46.873 116.042 46.3481 116.26 45.7979 116.385C45.25 116.51 44.6692 116.51 43.5075 116.51L29.393 116.51C28.3295 116.51 27.7977 116.51 27.3873 116.313C26.9775 116.116 26.6469 115.785 26.4501 115.375C26.253 114.965 26.253 114.433 26.253 113.37L26.253 99.2551C26.253 98.0935 26.253 97.5127 26.3778 96.9648C26.503 96.4146 26.7204 95.8897 27.0209 95.4121C27.3201 94.9365 27.7308 94.5258 28.5522 93.7044Z" stroke="url(#paint1_linear)" stroke-width="2.2"/>
<defs>
<linearGradient id="paint0_linear" x1="128.763" y1="46.5061" x2="80.8228" y2="18.2972" gradientUnits="userSpaceOnUse">
<stop stop-color="#447CFF"/>
<stop offset="1" stop-color="#6AAFFF"/>
</linearGradient>
<linearGradient id="paint1_linear" x1="116.763" y1="46.5061" x2="68.8228" y2="18.2972" gradientUnits="userSpaceOnUse">
<stop stop-color="#7291FF"/>
<stop offset="1" stop-color="#2E43FF"/>
</linearGradient>
</defs>
</svg>
