<svg width="152" height="152" viewBox="0 0 152 152" fill="none" xmlns="http://www.w3.org/2000/svg">
<path fill-rule="evenodd" clip-rule="evenodd" d="M85.0225 27.2877C84.387 26.9041 83.5913 26.9041 82.9558 27.2877L24.8375 62.3616C23.5486 63.1394 23.5486 65.0085 24.8375 65.7862L54.0895 83.4396C54.0017 83.6637 53.9528 83.9106 53.9528 84.1747V99.2963C53.9528 109.261 67.525 117.34 84.2671 117.34C101.009 117.34 114.581 109.261 114.581 99.2963V83.8389C114.581 83.5749 114.533 83.328 114.445 83.104L143.141 65.7862C144.43 65.0084 144.43 63.1394 143.141 62.3616L85.0225 27.2877Z" fill="url(#paint0_linear)"/>
<path fill-rule="evenodd" clip-rule="evenodd" d="M9.38708 66.2673L67.1183 31.427L124.85 66.2673L67.1183 101.108L9.38708 66.2673ZM66.0849 29.481C66.7205 29.0975 67.5161 29.0975 68.1517 29.481L126.27 64.5549C127.559 65.3327 127.559 67.2018 126.27 67.9796L98.7789 84.5702H98.8109V101.757C98.8109 107.282 95.0547 112.092 89.3946 115.461C83.7112 118.844 75.9312 120.9 67.3965 120.9C58.8619 120.9 51.0818 118.844 45.3985 115.461C39.7384 112.092 35.9822 107.282 35.9822 101.757V84.8868L7.96662 67.9796C6.6778 67.2018 6.67779 65.3327 7.96661 64.5549L66.0849 29.481ZM38.1822 86.2145V101.757C38.1822 106.197 41.2121 110.409 46.5237 113.57C51.8119 116.718 59.189 118.7 67.3965 118.7C75.6041 118.7 82.9812 116.718 88.2694 113.57C93.5809 110.409 96.6109 106.197 96.6109 101.757V85.8786L68.1517 103.054C67.5161 103.437 66.7205 103.437 66.0849 103.054L38.1822 86.2145Z" fill="url(#paint1_linear)"/>
<defs>
<linearGradient id="paint0_linear" x1="144.108" y1="27" x2="59.6784" y2="140.955" gradientUnits="userSpaceOnUse">
<stop stop-color="#447CFF"/>
<stop offset="1" stop-color="#6AAFFF"/>
</linearGradient>
<linearGradient id="paint1_linear" x1="127.237" y1="29.1934" x2="41.1627" y2="143.636" gradientUnits="userSpaceOnUse">
<stop stop-color="#7291FF"/>
<stop offset="1" stop-color="#2E43FF"/>
</linearGradient>
</defs>
</svg>
