<svg width="152" height="152" viewBox="0 0 152 152" fill="none" xmlns="http://www.w3.org/2000/svg">
<rect x="28" y="29" width="112" height="68" rx="2" fill="url(#paint0_linear)"/>
<path fill-rule="evenodd" clip-rule="evenodd" d="M14 105V41C14 39.8954 14.8954 39 16 39H124C125.105 39 126 39.8954 126 41V105C126 106.105 125.105 107 124 107H79.2361C77.7493 107 76.7823 108.565 77.4472 109.894L84.5528 124.106C85.2177 125.435 84.2507 127 82.7639 127H56.7361C55.2493 127 54.2823 125.435 54.9472 124.106L62.0528 109.894C62.7177 108.565 61.7507 107 60.2639 107H16C14.8954 107 14 106.105 14 105ZM19 42C17.8954 42 17 42.8954 17 44V102C17 103.105 17.8954 104 19 104H121C122.105 104 123 103.105 123 102V44C123 42.8954 122.105 42 121 42H19Z" fill="url(#paint1_linear)"/>
<path d="M77.4472 109.894L77.3578 109.939L77.3578 109.939L77.4472 109.894ZM84.5528 124.106L84.6422 124.061L84.6422 124.061L84.5528 124.106ZM13.9 41V105H14.1V41H13.9ZM16 38.9C14.8402 38.9 13.9 39.8402 13.9 41H14.1C14.1 39.9507 14.9507 39.1 16 39.1V38.9ZM124 38.9H16V39.1H124V38.9ZM126.1 41C126.1 39.8402 125.16 38.9 124 38.9V39.1C125.049 39.1 125.9 39.9507 125.9 41H126.1ZM126.1 105V41H125.9V105H126.1ZM124 107.1C125.16 107.1 126.1 106.16 126.1 105H125.9C125.9 106.049 125.049 106.9 124 106.9V107.1ZM79.2361 107.1H124V106.9H79.2361V107.1ZM77.5367 109.85C76.905 108.586 77.8236 107.1 79.2361 107.1V106.9C77.675 106.9 76.6596 108.543 77.3578 109.939L77.5367 109.85ZM84.6422 124.061L77.5367 109.85L77.3578 109.939L84.4633 124.15L84.6422 124.061ZM82.7639 127.1C84.325 127.1 85.3404 125.457 84.6422 124.061L84.4633 124.15C85.095 125.414 84.1764 126.9 82.7639 126.9V127.1ZM56.7361 127.1H82.7639V126.9H56.7361V127.1ZM54.8578 124.061C54.1596 125.457 55.175 127.1 56.7361 127.1V126.9C55.3236 126.9 54.405 125.414 55.0367 124.15L54.8578 124.061ZM61.9633 109.85L54.8578 124.061L55.0367 124.15L62.1422 109.939L61.9633 109.85ZM60.2639 107.1C61.6764 107.1 62.595 108.586 61.9633 109.85L62.1422 109.939C62.8404 108.543 61.825 106.9 60.2639 106.9V107.1ZM16 107.1H60.2639V106.9H16V107.1ZM13.9 105C13.9 106.16 14.8402 107.1 16 107.1V106.9C14.9507 106.9 14.1 106.049 14.1 105H13.9ZM17.1 44C17.1 42.9507 17.9507 42.1 19 42.1V41.9C17.8402 41.9 16.9 42.8402 16.9 44H17.1ZM17.1 102V44H16.9V102H17.1ZM19 103.9C17.9507 103.9 17.1 103.049 17.1 102H16.9C16.9 103.16 17.8402 104.1 19 104.1V103.9ZM121 103.9H19V104.1H121V103.9ZM122.9 102C122.9 103.049 122.049 103.9 121 103.9V104.1C122.16 104.1 123.1 103.16 123.1 102H122.9ZM122.9 44V102H123.1V44H122.9ZM121 42.1C122.049 42.1 122.9 42.9507 122.9 44H123.1C123.1 42.8402 122.16 41.9 121 41.9V42.1ZM19 42.1H121V41.9H19V42.1Z" fill="white"/>
<path fill-rule="evenodd" clip-rule="evenodd" d="M14 105V41C14 39.8954 14.8954 39 16 39H124C125.105 39 126 39.8954 126 41V105C126 106.105 125.105 107 124 107H79.2361C77.7493 107 76.7823 108.565 77.4472 109.894L84.5528 124.106C85.2177 125.435 84.2507 127 82.7639 127H56.7361C55.2493 127 54.2823 125.435 54.9472 124.106L62.0528 109.894C62.7177 108.565 61.7507 107 60.2639 107H16C14.8954 107 14 106.105 14 105ZM19 42C17.8954 42 17 42.8954 17 44V102C17 103.105 17.8954 104 19 104H121C122.105 104 123 103.105 123 102V44C123 42.8954 122.105 42 121 42H19Z" fill="url(#paint2_linear)"/>
<defs>
<linearGradient id="paint0_linear" x1="140" y1="29" x2="81.445" y2="126.804" gradientUnits="userSpaceOnUse">
<stop stop-color="#447CFF"/>
<stop offset="1" stop-color="#6AAFFF"/>
</linearGradient>
<linearGradient id="paint1_linear" x1="126" y1="39" x2="42.7562" y2="146.441" gradientUnits="userSpaceOnUse">
<stop stop-color="#7291FF"/>
<stop offset="1" stop-color="#2E43FF"/>
</linearGradient>
<linearGradient id="paint2_linear" x1="126" y1="39" x2="42.7562" y2="146.441" gradientUnits="userSpaceOnUse">
<stop stop-color="#7291FF"/>
<stop offset="1" stop-color="#2E43FF"/>
</linearGradient>
</defs>
</svg>
