<svg width="152" height="152" viewBox="0 0 152 152" fill="none" xmlns="http://www.w3.org/2000/svg">
<path d="M62.9613 71.3106L47.4865 38.1247C47.2481 37.6135 46.8165 37.218 46.2865 37.0251C44.5062 36.3771 44.3981 33.9002 46.1151 33.0995L65.82 23.911C67.537 23.1104 69.3649 24.7853 68.7169 26.5656C68.524 27.0956 68.5496 27.6805 68.7879 28.1916L84.2628 61.3776C84.5299 61.9504 84.6635 62.2368 84.83 62.5017C84.9974 62.7679 85.1896 63.0178 85.404 63.248C85.6172 63.4769 85.8598 63.6795 86.3447 64.0846L86.3449 64.0847L123.417 95.0513C126.465 97.5971 127.989 98.87 128.427 100.275C128.862 101.672 128.664 103.189 127.885 104.427C127.101 105.673 125.301 106.512 121.702 108.191L74.7566 130.082L74.7565 130.082C71.1574 131.76 69.3579 132.599 67.8995 132.399C66.4502 132.2 65.1606 131.377 64.3707 130.145C63.5757 128.906 63.5802 126.921 63.589 122.95L63.6968 74.6457L63.6968 74.6455C63.6982 74.0136 63.6989 73.6976 63.6606 73.3871C63.6221 73.0749 63.5542 72.7671 63.4578 72.4677C63.362 72.1698 63.2284 71.8834 62.9613 71.3106Z" fill="url(#paint0_linear)"/>
<circle cx="41.3975" cy="15.5" r="7.5" fill="url(#paint1_linear)"/>
<circle cx="57.3975" cy="18.5" r="4.5" fill="url(#paint2_linear)"/>
<path d="M53.0639 81.0318L37.589 47.8458C37.3506 47.3347 36.919 46.9392 36.389 46.7463C34.6088 46.0983 34.5006 43.6214 36.2176 42.8207L55.9225 33.6322C57.6395 32.8315 59.4674 34.5065 58.8195 36.2868C58.6266 36.8168 58.6521 37.4017 58.8905 37.9128L74.3653 71.0988C74.6325 71.6716 74.766 71.958 74.9326 72.2229C75.1 72.4891 75.2922 72.739 75.5065 72.9692C75.7198 73.1981 75.9623 73.4007 76.4473 73.8058L76.4474 73.8059L113.52 104.772C116.567 107.318 118.091 108.591 118.529 109.997C118.965 111.393 118.767 112.91 117.988 114.148C117.203 115.394 115.404 116.233 111.805 117.912L64.8591 139.803L64.859 139.803C61.26 141.481 59.4604 142.32 58.002 142.12C56.5527 141.921 55.2632 141.098 54.4732 139.867C53.6783 138.628 53.6827 136.642 53.6916 132.671L53.7993 84.3669L53.7993 84.3667C53.8007 83.7348 53.8014 83.4188 53.7631 83.1083C53.7246 82.7961 53.6567 82.4883 53.5604 82.1889C53.4645 81.891 53.331 81.6046 53.0639 81.0318Z" stroke="url(#paint3_linear)" stroke-width="2.2"/>
<circle cx="46.3975" cy="28.5" r="3.4" stroke="url(#paint4_linear)" stroke-width="2.2"/>
<circle cx="30.3975" cy="25.5" r="6.4" stroke="url(#paint5_linear)" stroke-width="2.2"/>
<defs>
<linearGradient id="paint0_linear" x1="151.701" y1="51.3062" x2="14.624" y2="116.399" gradientUnits="userSpaceOnUse">
<stop stop-color="#447CFF"/>
<stop offset="1" stop-color="#6AAFFF"/>
</linearGradient>
<linearGradient id="paint1_linear" x1="48.8975" y1="8" x2="34.2452" y2="22.859" gradientUnits="userSpaceOnUse">
<stop stop-color="#447CFF"/>
<stop offset="1" stop-color="#6AAFFF"/>
</linearGradient>
<linearGradient id="paint2_linear" x1="61.8975" y1="14" x2="53.1061" y2="22.9154" gradientUnits="userSpaceOnUse">
<stop stop-color="#447CFF"/>
<stop offset="1" stop-color="#6AAFFF"/>
</linearGradient>
<linearGradient id="paint3_linear" x1="141.804" y1="61.0274" x2="4.72657" y2="126.12" gradientUnits="userSpaceOnUse">
<stop stop-color="#7291FF"/>
<stop offset="1" stop-color="#2E43FF"/>
</linearGradient>
<linearGradient id="paint4_linear" x1="50.8975" y1="24" x2="42.1061" y2="32.9154" gradientUnits="userSpaceOnUse">
<stop stop-color="#7291FF"/>
<stop offset="1" stop-color="#2E43FF"/>
</linearGradient>
<linearGradient id="paint5_linear" x1="37.8975" y1="18" x2="23.2452" y2="32.859" gradientUnits="userSpaceOnUse">
<stop stop-color="#7291FF"/>
<stop offset="1" stop-color="#2E43FF"/>
</linearGradient>
</defs>
</svg>
